<svg width="113" height="116" viewBox="0 0 113 116" fill="none" xmlns="http://www.w3.org/2000/svg">
<path d="M112.529 75.7756C108.357 88.4074 99.9342 99.2018 88.6956 106.32C77.4571 113.438 64.0983 116.438 50.8953 114.811C37.6923 113.183 25.462 107.028 16.2884 97.3943C7.11484 87.7604 1.56549 75.2436 0.585923 61.9768C-0.393645 48.71 3.25718 35.514 10.9163 24.6372C18.5755 13.7603 29.7691 5.87572 42.5899 2.32675C55.4107 -1.22222 69.0654 -0.215963 81.2275 5.17407C93.3895 10.5641 103.306 20.0044 109.288 31.8865L57.9298 57.7428L112.529 75.7756Z" fill="url(#paint0_linear_66_5)"/>
<defs>
<linearGradient id="paint0_linear_66_5" x1="115.832" y1="49.2987" x2="2.03837" y2="67.7952" gradientUnits="userSpaceOnUse">
<stop stop-color="#F87274"/>
<stop offset="0.553184" stop-color="#CA4978"/>
<stop offset="1" stop-color="#0984E3"/>
</linearGradient>
</defs>
</svg>

