<svg width="1022" height="1022" viewBox="0 0 1022 1022" fill="none" xmlns="http://www.w3.org/2000/svg">
<path d="M736.771 236.584H182.754V763.298H736.771V236.584Z" fill="white"/>
<path d="M708.398 311.043V526.439H352.842V311.043H708.398ZM226.602 256.489C215.846 256.489 207.134 265.198 207.134 275.954C207.134 286.71 215.846 295.422 226.602 295.422C237.358 295.422 246.069 286.71 246.069 275.954C246.069 265.198 237.358 256.489 226.602 256.489ZM455.626 562.648C463.072 574.181 453.777 590.436 442.875 591.556C431.973 592.725 423.506 589.561 424.333 580.508C424.333 580.508 424.625 573.062 414.601 575.349C404.526 577.636 392.798 558.56 406.571 551.794C423.018 543.668 447.499 549.994 455.626 562.648ZM425.015 567.271C425.015 567.271 420.635 566.102 417.521 567.807C414.357 569.56 415.33 571.797 420.391 572.428C425.453 573.11 427.206 575.689 426.864 578.465C426.524 581.287 430.952 582.115 432.169 578.903C433.336 575.689 432.995 568.681 425.015 567.271Z" fill="#F87274"/>
<path d="M215.506 313.33H259.646V525.37H215.506V313.33ZM267.579 381.658H311.719V312.404H267.579V381.658ZM266.216 403.021H286.511V431.977C288.262 432.123 290.113 432.659 291.378 432.708V403.021H311.525V391.293H266.216V403.021ZM430.173 554.324C427.642 554.324 425.597 555.444 425.597 556.759C425.597 558.122 427.642 559.191 430.173 559.191C432.703 559.191 434.748 558.122 434.748 556.759C434.748 555.444 432.703 554.324 430.173 554.324ZM267.823 293.619H708.496V258.53H267.823V293.619ZM516.555 672.877H704.505V643.727H516.555V672.877ZM784.611 682.464L807.142 763.2H856.247L876.98 682.464H784.611Z" fill="#0984E3"/>
<path d="M337.171 526.682C337.171 526.682 343.546 532.912 344.13 542.451C341.745 537.827 335.078 534.665 334.007 534.567C332.79 534.421 330.795 533.106 331.331 530.869C331.866 528.678 333.763 527.219 335.175 529.02C336.44 530.625 337.559 528.58 337.072 526.633L337.171 526.682ZM295.318 451.251C296.146 449.741 295.806 438.791 295.806 436.065C295.806 433.388 293.615 432.709 291.62 432.709C289.575 432.709 285.683 431.2 283.493 432.367C281.302 433.536 281.498 443.805 282.861 447.357C284.174 450.909 286.559 455.872 286.559 455.872L288.36 477.578L299.212 477.724C297.315 467.262 294.734 452.222 295.318 451.251ZM418.639 571.311C418.445 571.359 418.201 571.555 417.909 571.895C418.543 572.089 419.272 572.284 420.196 572.43C419.954 571.797 419.126 571.165 418.639 571.311ZM416.742 575.009C416.79 575.155 416.79 575.349 416.839 575.544C417.423 577.394 418.203 577.297 418.203 577.297L400.878 591.362L408.13 595.983L422.438 581.969C422.438 581.969 422.438 581.969 423.703 581.969C423.897 581.969 424.093 581.921 424.337 581.823C424.289 581.383 424.337 580.995 424.337 580.508C424.333 580.508 424.577 574.18 416.742 575.009ZM430.124 575.009C429.638 573.062 424.771 569.558 424.771 569.558C424.771 569.558 422.532 570.677 421.949 571.311C421.365 571.943 421.413 572.966 422.484 573.744C423.506 574.523 426.086 577.004 426.182 578.173C426.28 578.805 426.62 579.145 426.962 579.291C427.01 579.437 427.01 579.582 427.06 579.728C427.304 579.485 427.449 579.339 427.449 579.339C427.546 579.193 430.66 576.906 430.124 575.009ZM222.416 745.633L222.562 745.925C222.562 745.925 216.673 756.243 218.572 759.796C220.177 762.86 223.389 760.671 223.877 760.331C223.975 759.65 224.169 757.799 224.705 756.341L238.185 754.053L234.729 742.277L222.416 745.633ZM334.982 838.001L336.491 824.373L324.178 824.519L324.08 837.27L324.42 837.222C324.42 837.222 332.742 845.691 336.684 844.862C340.042 844.132 338.825 840.434 338.582 839.898C337.951 839.606 336.248 838.877 334.982 838.001Z" fill="#FFD2BB"/>
<path d="M414.066 558.366C414.066 559.727 412.021 560.799 409.491 560.799C406.96 560.799 404.915 559.727 404.915 558.366C404.915 557.051 406.96 555.98 409.491 555.98C412.021 555.98 414.066 557.051 414.066 558.366ZM296.876 563.523C297.07 563.278 297.266 563.084 297.46 562.842H295.707L295.805 563.523H296.876ZM303.057 553.353H294.297L294.395 554.033H302.961C303.009 553.789 303.057 553.547 303.057 553.353ZM356.639 568.293C356.396 568.049 356.153 567.807 355.862 567.613H350.265C350.411 567.807 350.557 568.051 350.703 568.293H356.639ZM360.629 624.648H350.311C350.019 624.842 349.679 625.086 349.386 625.282H360.579L360.629 624.648ZM360.241 629.369H342.331C341.796 629.613 341.212 629.855 340.676 630.049H360.191L360.241 629.369ZM301.16 558.074H294.979L295.077 558.754H300.722C300.868 558.56 301.014 558.316 301.16 558.074ZM302.911 549.265C302.863 549.021 302.765 548.826 302.717 548.583H293.568L293.666 549.265H302.911ZM301.354 544.494C301.306 544.3 301.256 544.056 301.208 543.814H292.838L292.984 544.494H301.354ZM302.523 529.554H290.745L290.843 530.234H302.279C302.327 530.04 302.425 529.798 302.523 529.554ZM301.062 535.005C301.11 534.761 301.16 534.567 301.208 534.323H291.425L291.523 535.005H301.062ZM304.81 524.833H290.016L290.114 525.514H304.422C304.566 525.272 304.712 525.028 304.81 524.833ZM300.77 539.774C300.77 539.529 300.722 539.287 300.722 539.093H292.157L292.254 539.774H300.77ZM360.971 596.811H372.115C372.017 596.567 371.921 596.325 371.823 596.13H360.921C360.921 596.325 360.921 596.567 360.971 596.811ZM361.019 601.531H374.306C374.258 601.337 374.112 601.141 374.014 600.851H361.069C361.067 601.093 361.067 601.337 361.019 601.531ZM408.371 596.13H384.914C384.622 596.325 384.378 596.569 384.086 596.811H409.442L408.371 596.13ZM360.483 592.042H369.876C369.778 591.798 369.682 591.604 369.584 591.362H360.337C360.387 591.604 360.435 591.798 360.483 592.042ZM400.877 591.36H390.561C390.317 591.554 390.025 591.798 389.781 592.04H401.948L400.877 591.36ZM354.061 573.014H360.485C360.437 572.868 360.339 572.722 360.291 572.576C360.243 572.527 360.145 572.429 360.097 572.331H353.625C353.767 572.576 353.913 572.77 354.061 573.014ZM359.56 587.272H367.639C367.541 587.078 367.445 586.833 367.299 586.591H359.415C359.462 586.835 359.51 587.078 359.56 587.272ZM354.79 620.56H360.971L361.019 619.88H355.374C355.18 620.122 354.984 620.316 354.79 620.56ZM356.541 577.782H362.966C362.868 577.538 362.772 577.344 362.626 577.102H356.251C356.347 577.296 356.444 577.54 356.541 577.782ZM358.294 582.551H365.351C365.253 582.307 365.107 582.065 365.011 581.871H358.052C358.148 582.065 358.197 582.309 358.294 582.551ZM305.929 484.539C305.929 484.295 305.929 484.053 305.929 483.859H283.883L283.981 484.539H305.929ZM351.772 846.031C350.019 844.912 343.353 845.301 341.796 842.867C340.286 840.434 338.583 839.802 338.583 839.802C338.583 839.802 340.336 844.084 336.685 844.862C332.743 845.689 324.421 837.222 324.421 837.222L322.864 837.466L322.23 847.978L354.447 849.973C354.447 849.973 355.082 848.026 351.772 846.031ZM218.573 759.796C216.674 756.244 222.563 745.926 222.563 745.926L221.929 744.514L211.613 746.753L218.475 778.29C218.475 778.29 220.52 778.388 221.589 774.64C222.125 772.645 219.984 766.366 221.881 764.225C223.78 762.084 223.926 760.283 223.926 760.283C223.926 760.283 220.276 763.152 218.573 759.796ZM284.419 487.459H305.929C305.929 487.265 305.929 487.019 305.929 486.777H284.321L284.419 487.459ZM358.78 648.397H290.21C290.162 648.641 290.112 648.835 290.112 649.079H358.682L358.78 648.397ZM288.069 660.272C288.069 660.272 284.954 693.462 301.306 715.216C301.452 715.41 232.979 736.339 232.979 736.339L239.987 760.38L325.882 742.032L315.516 824.473H344.814L361.361 738.869L357.517 664.264L288.069 660.272ZM377.03 601.531H412.217C412.557 601.287 412.85 601.045 413.142 600.851H378.345C377.858 601.143 377.42 601.337 377.03 601.531ZM364.523 620.56H384.574C384.964 620.316 385.304 620.122 385.693 619.88H363.21C363.598 620.074 364.037 620.316 364.523 620.56ZM360.629 606.3H405.645C405.937 606.056 406.278 605.814 406.57 605.62H360.727C360.727 605.864 360.679 606.058 360.629 606.3ZM285.83 496.996H306.075C306.075 496.752 306.075 496.51 306.075 496.316H285.732L285.83 496.996ZM357.905 615.791H391.972C392.312 615.597 392.605 615.353 392.945 615.111H358.198C358.099 615.353 358.003 615.595 357.905 615.791ZM359.706 611.071H398.882C399.222 610.827 399.564 610.584 399.856 610.39H359.852C359.802 610.584 359.754 610.827 359.706 611.071ZM285.148 492.227H305.977C305.977 491.983 305.977 491.789 305.977 491.547H285.051L285.148 492.227ZM293.616 629.369C293.616 629.613 293.568 629.855 293.518 630.049H306.805C305.783 629.855 304.76 629.611 303.738 629.369H293.616ZM359.9 634.137H292.788C292.74 634.383 292.691 634.577 292.642 634.819H359.85L359.9 634.137ZM359.51 638.908H291.913C291.913 639.102 291.865 639.346 291.815 639.54H359.462L359.51 638.908ZM286.56 501.717H306.123C306.123 501.521 306.123 501.278 306.123 501.036H286.462L286.56 501.717ZM289.236 653.798H358.342L358.391 653.166H289.332C289.334 653.362 289.284 653.604 289.236 653.798ZM359.122 643.629H291.087C291.039 643.873 290.989 644.067 290.941 644.309H359.074L359.122 643.629ZM287.289 506.487H306.221C306.221 506.243 306.221 506.049 306.221 505.807H287.193L287.289 506.487ZM287.971 511.256H306.319C306.319 511.012 306.319 510.77 306.319 510.574H287.875L287.971 511.256ZM289.382 520.745H306.611C306.611 520.501 306.563 520.307 306.563 520.065H289.286L289.382 520.745ZM288.701 515.976H306.463C306.463 515.782 306.463 515.538 306.463 515.296H288.603L288.701 515.976Z" fill="#F87274"/>
<path d="M295.952 564.495L295.806 563.523H296.853C296.56 563.844 296.259 564.169 295.952 564.495ZM292.918 544.19L293.574 548.583H302.713C302.601 548.23 302.478 547.874 302.327 547.512C300.649 543.424 300.404 538.811 301.182 534.447C301.142 534.634 301.101 534.806 301.061 535.005H291.547L292.158 539.093H300.723C300.723 539.287 300.771 539.529 300.771 539.774H292.261L292.865 543.814H301.211C301.259 544.056 301.309 544.3 301.357 544.494H292.987L292.918 544.19ZM284.341 486.777H305.929C305.929 487.019 305.929 487.265 305.929 487.459H284.442L285.054 491.546H305.977C305.977 491.788 305.977 491.982 305.977 492.226H285.155L285.766 496.316H306.073C306.004 491.661 305.958 487.56 305.929 484.408C305.929 484.454 305.929 484.492 305.929 484.538H284.006L284.341 486.777ZM306.454 515.295H288.602L288.621 515.431L287.998 511.256H306.318C306.318 511.012 306.318 510.77 306.318 510.574H287.897L286.573 501.717H306.123C306.123 501.521 306.123 501.277 306.123 501.035H286.472L285.867 496.996H306.075C306.075 496.803 306.075 496.628 306.075 496.462C306.16 502.172 306.282 508.694 306.454 515.295ZM306.22 505.806H287.193L287.289 506.486H306.22C306.22 506.243 306.22 506.049 306.22 505.806ZM291.933 638.908H359.509L359.461 639.54H291.82C291.559 640.994 291.306 642.393 291.061 643.753C291.069 643.712 291.078 643.674 291.087 643.629H359.121L359.073 644.309H290.959C290.7 645.743 290.455 647.104 290.221 648.397H358.769L359.842 634.818H292.666C292.417 636.207 292.172 637.576 291.933 638.908ZM306.607 520.693C306.555 519.004 306.507 517.306 306.463 515.611C306.463 515.735 306.463 515.871 306.463 515.975H288.704L289.315 520.065H306.562C306.562 520.288 306.6 520.475 306.607 520.693ZM358.39 653.166L358.342 653.798H289.244C288.52 657.8 288.07 660.269 288.07 660.269L357.516 664.259L358.759 648.539L358.682 649.077H290.111C290.111 648.955 290.142 648.845 290.161 648.735C289.869 650.349 289.601 651.831 289.359 653.165L358.39 653.166ZM358.304 582.551H365.35C365.252 582.307 365.106 582.065 365.01 581.871H358.086C356.967 578.499 355.597 575.465 354.081 573.014H360.485C360.437 572.871 360.344 572.727 360.294 572.585C362.212 576.06 365.012 581.773 367.633 587.264C367.537 587.071 367.443 586.831 367.299 586.592H359.43C359.097 585.205 358.718 583.856 358.304 582.551ZM362.965 577.782C362.868 577.538 362.771 577.344 362.625 577.102H356.251C356.347 577.296 356.443 577.539 356.541 577.782H362.965ZM369.625 591.458C369.709 591.655 369.792 591.832 369.876 592.042H360.483C360.474 592.002 360.467 591.969 360.459 591.932C360.663 593.321 360.825 594.723 360.928 596.129H371.816C371.158 594.716 370.417 593.135 369.625 591.458ZM369.58 591.362C368.955 590.038 368.305 588.666 367.639 587.272H359.587C359.892 588.611 360.153 589.978 360.37 591.362H369.58ZM405.622 606.3H360.656C360.464 607.696 360.201 609.064 359.861 610.389H399.848C401.876 608.968 403.833 607.581 405.622 606.3ZM303.022 553.593C303.292 552.207 303.271 550.776 302.895 549.265H293.676L294.992 558.074H301.159C301.013 558.316 300.867 558.56 300.721 558.754H295.094L295.743 563.099L295.705 562.842H297.458C297.386 562.931 297.313 563.013 297.241 563.094C300.028 560.016 302.189 557.128 302.931 554.032H294.393L294.295 553.353H303.055C303.056 553.421 303.032 553.514 303.022 553.593ZM355.861 567.613C356.153 567.807 356.395 568.049 356.639 568.293H350.726C351.255 569.082 351.818 569.875 352.455 570.676C352.857 571.182 353.252 571.743 353.638 572.331H360.097C360.143 572.427 360.237 572.521 360.287 572.571C357.173 567.074 351.092 564.593 348.171 563.667C348.724 564.965 349.435 566.282 350.28 567.613H355.861ZM443.847 564.059C441.317 564.059 439.272 565.128 439.272 566.443C439.272 567.807 441.317 568.878 443.847 568.878C446.378 568.878 448.423 567.807 448.423 566.443C448.423 565.128 446.378 564.059 443.847 564.059ZM553.785 408.57L521.909 387.645C520.497 386.72 518.599 387.743 518.599 389.446L518.501 430.813C518.501 432.515 520.35 433.538 521.809 432.614L553.734 412.173C555.051 411.344 555.051 409.397 553.785 408.57ZM401.232 591.585L414.409 599.924C414.409 599.924 411.147 602.336 406.559 605.627C406.563 605.625 406.566 605.622 406.57 605.62H360.752C360.916 604.277 361.01 602.909 361.051 601.531H374.305C374.257 601.337 374.111 601.141 374.013 600.851H361.068C361.068 600.892 361.06 600.924 361.06 600.964C361.085 599.52 361.049 598.066 360.955 596.612C360.962 596.682 360.955 596.739 360.969 596.811H372.113C372.034 596.615 371.957 596.433 371.878 596.263C373.024 598.72 373.917 600.652 374.351 601.58C374.676 602.288 375.667 602.168 377.038 601.531H412.215C412.555 601.287 412.848 601.045 413.14 600.851H378.343C378.156 600.962 377.981 601.052 377.809 601.141C383.695 597.949 394.792 587.516 394.794 587.513L400.873 591.36H390.558C390.315 591.554 390.023 591.798 389.779 592.04H401.946L401.232 591.585ZM408.371 596.129H384.913C384.622 596.325 384.378 596.569 384.086 596.811H409.442L408.371 596.129ZM532.227 459.376C504.78 459.376 482.49 437.088 482.49 409.639C482.49 382.24 504.78 359.952 532.227 359.952C559.626 359.952 581.916 382.24 581.916 409.639C581.916 437.088 559.626 459.376 532.227 459.376ZM532.227 455.434C557.435 455.434 577.974 434.898 577.974 409.639C577.974 384.429 557.437 363.893 532.227 363.893C506.969 363.893 486.48 384.429 486.48 409.639C486.48 434.898 506.969 455.434 532.227 455.434ZM517.871 594.768V623.87H705.82V594.768H517.871ZM302.794 548.854C302.771 548.777 302.752 548.7 302.728 548.623C302.746 548.703 302.77 548.781 302.794 548.854ZM398.873 611.071C390.344 617.022 380.913 623.269 377.957 623.964C374.221 624.844 368.312 622.404 364.578 620.56H384.574C384.963 620.316 385.303 620.122 385.693 619.88H363.242C361.946 619.2 361.118 618.708 361.118 618.708L359.897 634.137H292.79C293.032 632.789 293.275 631.429 293.523 630.049H306.806C305.784 629.855 304.761 629.611 303.74 629.369H293.645C293.797 628.511 293.952 627.651 294.106 626.785C295.322 627.225 296.587 627.615 297.95 627.954C325.398 634.963 339.462 634.283 352.942 622.455C353.61 621.868 354.22 621.228 354.797 620.56H360.972L361.02 619.88H355.375C355.365 619.892 355.356 619.902 355.346 619.913C356.345 618.653 357.202 617.271 357.921 615.791H391.973C392.313 615.597 392.607 615.353 392.947 615.111H358.225C358.852 613.717 359.374 612.249 359.782 610.719C359.757 610.838 359.731 610.946 359.707 611.071H398.873ZM360.241 629.369H342.331C341.795 629.613 341.211 629.855 340.676 630.049H360.191L360.241 629.369ZM360.629 624.648H350.311C350.019 624.842 349.679 625.086 349.385 625.281H360.579L360.629 624.648ZM305.923 483.858C305.889 480.09 305.88 477.82 305.88 477.82L282.959 477.528L283.905 483.858H305.923ZM306.608 520.745H289.416L290.027 524.832H304.809C304.711 525.028 304.565 525.272 304.421 525.514H290.129L291.445 534.323H301.202C301.458 532.924 301.824 531.554 302.279 530.234H290.844L290.747 529.554H302.521C303.542 526.824 304.957 524.341 306.66 522.352C306.641 521.818 306.624 521.28 306.608 520.745Z" fill="#E6E6E6"/>
<path d="M449.349 582.261C449.349 583.624 447.304 584.693 444.773 584.693C442.243 584.693 440.198 583.624 440.198 582.261C440.198 580.946 442.243 579.826 444.773 579.826C447.304 579.826 449.349 580.946 449.349 582.261ZM518.553 578.853H706.502V549.751H518.553V578.853ZM344.91 544.689C343.985 538.898 335.273 534.665 334.008 534.567C332.791 534.421 330.796 533.106 331.332 530.869C331.867 528.678 333.764 527.219 335.176 529.02C336.587 530.773 337.754 528.142 336.928 526.099C336.053 524.007 332.111 512.229 313.131 517.776C304.08 520.454 297.608 536.026 302.327 547.512C307.097 559.046 291.475 565.518 282.18 581.042C272.933 596.519 270.451 620.996 297.948 627.956C325.395 634.964 339.461 634.284 352.94 622.457C366.419 610.63 360.921 581.334 352.454 570.677C343.986 560.069 345.835 550.48 344.91 544.689ZM746.748 617.931C698.763 605.912 708.253 639.2 715.747 641.584C723.291 644.017 721.344 635.548 735.165 638.956C748.985 642.314 741.685 650.344 754.047 649.37C766.408 648.397 777.602 642.556 779.742 651.317C781.933 660.028 775.167 662.947 784.61 663.191C794.051 663.435 799.404 657.594 803.054 663.922C806.656 670.199 801.594 670.93 808.845 677.013C810.792 678.62 813.274 680.517 815.901 682.464H824.514C811.427 663.582 782.031 626.741 746.748 617.931ZM776.192 495.438C722.124 456.506 723.973 512.081 748.209 540.066C772.444 568.049 759.013 572.185 768.892 586.785C778.821 601.336 791.814 592.821 794.88 611.265C797.896 629.709 780.961 632.142 801.012 647.425C817.072 659.688 823.984 675.504 826.417 682.464H831.234C831.086 671.514 828.168 532.766 776.192 495.438ZM893.672 621.923C870.215 631.412 849.532 666.063 840.821 682.464H855.373C859.802 681.149 860.97 679.446 862.089 672.633C863.548 663.922 868.27 661.342 868.27 661.342C868.27 661.342 869.341 661.342 885.01 663.191C900.632 664.992 897.372 662.461 902.433 651.561C907.542 640.611 909.733 641.73 924.285 643.19C938.837 644.651 961.856 647.571 962.39 637.739C962.972 627.908 924.769 609.368 893.672 621.923ZM845.93 660.224C853.182 656.818 855.859 649.664 851.039 641.097C846.27 632.531 848.995 627.86 855.711 621.729C862.427 615.596 863.984 609.66 857.658 594.914C851.331 580.168 855.761 587.76 864.666 577.393C873.523 567.027 880.921 570.777 887.637 551.552C894.354 532.278 881.359 538.559 892.601 525.614C903.794 512.669 920.729 513.203 921.119 489.745C921.557 466.24 885.155 462.832 861.454 499.576C839.895 533.059 834.492 660.224 833.715 682.464H838.094C838.288 681.295 838.338 679.983 838.434 678.668C838.68 674.335 838.68 663.63 845.93 660.224Z" fill="#F87274"/>
</svg>
